<svg width="10" height="8" viewBox="0 0 10 8" fill="none" xmlns="http://www.w3.org/2000/svg">
<path d="M5.24392 1.34371L5.24379 1.34381L4.88439 1.64287L4.72448 1.77592L4.56458 1.64287L4.20517 1.34381L4.20486 1.34355C3.36876 0.645538 2.00331 0.53746 1.10265 1.15713C0.587525 1.51215 0.33154 1.99568 0.305977 2.47122C0.280416 2.94673 0.483654 3.4408 0.94026 3.82203L5.24392 1.34371ZM5.24392 1.34371C6.08201 0.64542 7.44574 0.537526 8.34632 1.15713C8.86145 1.51216 9.11739 1.99566 9.14275 2.47112C9.16812 2.94656 8.96451 3.44068 8.50693 3.82198L8.50688 3.82203L4.97675 6.76541C4.97673 6.76543 4.97671 6.76544 4.9767 6.76546C4.84137 6.87818 4.60577 6.87818 4.47044 6.76546C4.47043 6.76544 4.47041 6.76543 4.47039 6.76541L0.940374 3.82212L5.24392 1.34371Z" stroke="black" stroke-width="0.5"/>
</svg>
